<?xml version="1.0" encoding="utf-8"?>
<!-- Generator: Adobe Illustrator 16.0.0, SVG Export Plug-In . SVG Version: 6.00 Build 0)  -->
<!DOCTYPE svg PUBLIC "-//W3C//DTD SVG 1.1//EN" "http://www.w3.org/Graphics/SVG/1.1/DTD/svg11.dtd">
<svg version="1.1" id="Layer_1" xmlns="http://www.w3.org/2000/svg" xmlns:xlink="http://www.w3.org/1999/xlink" x="0px" y="0px"
	 width="1020px" height="207px" viewBox="0 0 1020 207" enable-background="new 0 0 1020 207" xml:space="preserve">
<polygon fill="#ED1C24" points="0,200.001 271.625,200.001 559.611,73.593 1020,71.667 1020,0 0,0 "/>
<polyline fill="none" stroke="#000000" stroke-width="14" stroke-miterlimit="10" points="0,200 271.625,200 559.611,73.592 
	1020,71.667 "/>
<ellipse fill="#BE1E2D" cx="110.46" cy="101.333" rx="78.431" ry="81.667"/>
<circle fill="#FFFFFF" cx="109.695" cy="93" r="79.5"/>
<circle stroke="#000000" stroke-miterlimit="10" cx="109.696" cy="93" r="71.666"/>
<circle fill="#5FCCF5" stroke="#000000" stroke-miterlimit="10" cx="109.696" cy="93" r="64.196"/>
<circle fill="#D1EEFC" cx="85.666" cy="57.667" r="14"/>
<circle fill="#D1EEFC" cx="99.667" cy="81.593" r="8"/>
<circle fill="#DD1F26" stroke="#000000" stroke-width="4" stroke-miterlimit="10" cx="231" cy="43.667" r="15.5"/>
<circle fill="#FFF200" stroke="#000000" stroke-width="4" stroke-miterlimit="10" cx="275.667" cy="43.667" r="15.5"/>
<circle fill="#80C342" stroke="#000000" stroke-width="4" stroke-miterlimit="10" cx="320" cy="43.667" r="15.5"/>
<g transform="translate(0.000000,129.000000) scale(0.100000,-0.100000)">
	<path fill="#010101" d="M8760.439,442.949c-14.004-3.999-42.998-17.002-65-28.003c-30-15.996-70-22.998-160-27.998
		c-96.992-6.001-129.004-12.002-167.998-32.002c-26.006-12.998-50-28.999-52.002-35.996c-2.998-7.002-10.996-66.001-17.998-132.002
		l-12.998-120l-14.004,73.999c-7.998,41.001-22.002,83.003-30.996,92.002c-12.002,11.997-43.008,18.999-106.006,23.999
		c-202.998,16.001-192.002,12.002-240.996,82.998c-30,42.002-50,62.002-64.004,62.002c-22.002,0-197.998-90-312.002-157.998
		c-75.996-46.001-81.992-70-35-143.003c43.008-66.997,53.008-71.001,135-53.999c99.004,21.001,117.002,17.998,54.004-7.998
		c-30-13.003-72.002-32.002-92.998-43.003c-34.004-17.998-47.002-18.999-114.004-11.001c-73.994,9.004-75.996,9.004-143.994-25.996
		l-68.008-35l-5,26.997c-2.998,13.999-10,120-16.992,236.001c-12.002,221.001-20,255-61.006,255
		c-22.998,0-283.994-108.999-333.994-138.999c-26.006-16.001-33.008-28.999-47.002-93.999c-9.004-42.002-14.004-82.002-11.006-90
		c4.004-11.001-8.994-16.001-51.992-20c-34.004-3.003-86.006-20-131.006-41.001c-40.996-20-76.992-36.001-80-36.001
		c-1.992,0,7.002,15,20.996,32.998c91.006,119.004,65,242.002-63.994,310c-55,29.004-56.006,29.004-190,24.004
		c-103.994-4.004-156.006-11.001-223.994-31.001c-201.006-58.003-283.008-93.999-291.006-128.999c-5-22.002,73.994-250,95-271.001
		c6.006-6.001,22.002-11.001,37.002-12.002c29.004-1.001,21.992,18.003,160-383.994c59.004-172.012,74.004-200,105-200
		c25.996,0,90,34.004,160.996,85.996l60.996,44.004l28.008-30c15-17.012,52.998-43.008,84.004-57.012
		c46.992-20.996,65.996-25,127.988-20.996c63.008,3.008,87.002,10,164.004,48.008l90,45l6.006-59.004
		c2.998-31.992,5.996-75,5.996-95c0-20.996,5-41.992,12.002-49.004c7.998-7.988,55.996-11.992,150-11.992
		c117.002,0,145,2.988,177.002,19.004c46.992,25,58.994,37.988,62.998,77.988l2.998,30.996l95-68.984
		c142.998-106.016,140-105,202.002-73.008c62.998,31.992,67.998,38.008,67.998,86.992c0,35,0.996,37.012,32.998,37.012
		c47.002,0,177.002,34.004,226.006,60c45.996,22.988,41.992,26.992,60-59.004c5.996-30,15.996-60,21.992-68.008
		c19.004-21.992,201.006-17.988,247.002,6.016c27.002,12.988,77.002,21.992,180.01,30c77.988,5.996,150.996,15,161.992,20.996
		c17.002,9.004,20,7.988,20-13.008c0-12.988,9.004-31.992,20-41.992c18.008-15.996,32.002-17.012,128.008-12.012
		c100,6.016,108.994,5,120-12.988c10.996-18.008,23.994-20,151.992-20c122.002,0,144.004,2.988,180,20.996
		c45,23.008,60,45,60,83.008c0,25,5.996,21.992,108.008-52.012c58.994-44.004,115-81.992,125-85c20-6.992,105,30.996,125.996,57.012
		c7.998,8.984,21.992,15.996,32.998,15.996c27.002,0,117.998,47.988,125,65.996c8.994,25-27.998,757.998-38.994,771.997
		c-6.006,6.001-22.012,12.002-36.006,12.002h-25l20,22.998c80,87.002,67.998,193.003-28.994,247.002
		c-57.012,32.002-118.008,31.001-183.008-2.002c-65-33.999-90.996-62.998-105.996-117.998
		c-28.008-106.001,35-197.998,137.998-201.001c21.006,0,2.998-11.997-72.998-47.998c-55.996-27.002-103.008-53.003-105-58.999
		c-2.002-5-32.002-24.004-65.996-41.001l-63.008-31.001v32.002c-1.992,133.999-29.004,460-40,472.998
		c-17.998,21.001-45.996,17.998-115-11.001c-112.998-47.998-116.992-48.999-126.992-30
		C8917.441,423.95,8809.443,458.95,8760.439,442.949z M8877.441,382.949c12.002-6.001,28.994-23.999,38.994-38.999l16.006-29.004
		l106.006,44.004c57.988,23.999,106.992,40.996,110,38.999c1.992-3.003,10.996-116.001,18.994-253.003
		c7.002-135.996,16.006-257.998,18.994-270.996c5-23.003,6.006-23.003,100,27.998c69.004,37.002,104.004,50,127.012,47.998
		c27.988-2.998,31.992,0,36.992,27.002c5,27.998,15,33.999,133.008,82.998c70.996,30,130,52.002,131.992,50
		c5.996-5.996,35.996-720.005,30.996-725.005c-2.988-2.988-40-7.988-80.996-10.996l-75.996-5l5.996-26.992
		c3.008-15.996,2.002-30-1.992-33.008c-5-2.988-89.004,53.008-188.008,124.004c-99.004,70.996-181.992,129.004-184.004,129.004
		c-1.992,0-1.992-50.996,0-113.008l4.004-111.992l-114.004-3.008c-62.988-0.996-117.988,0.996-122.988,5.996
		c-9.004,9.004-18.008,146.016-39.004,586.006l-12.002,248.003l-33.994-5c-18.008-3.003-33.008-2.002-33.008,3.999
		c0,5-22.998,8.999-50.996,8.999c-44.004,0-55,3.999-84.004,32.998l-32.998,33.003l-7.002-85c-2.998-47.002-7.998-98.003-10-113.003
		c-2.998-15.996,0-27.998,5-27.998s59.004,21.001,120.996,46.001c61.006,25,112.012,43.999,114.004,41.997
		c7.002-6.997,35.996-720.005,30-726.001c-4.004-4.004-56.992-6.992-117.998-6.992h-112.002l-5,250
		c-2.998,137.988-6.992,250.996-7.998,252.993c-1.006,1.001-11.006,2.002-21.006,2.002c-22.988,0-25-13.999-40.996-209.995
		c-14.004-175-21.992-240-29.004-244.004c-2.988-1.992-60-6.992-125.996-10.996l-120-5.996l-22.998,40
		c-12.002,22.988-26.006,40.996-30,40.996c-5,0-17.002-25.996-28.994-57.012l-20.01-57.988l-85.997-3.008
		c-96.006-2.988-86.006-11.992-107.002,98.008c-19.004,94.004-19.004,95-72.002,55.996c-25.996-18.008-82.002-43.008-123.994-55.996
		c-65-19.004-93.008-22.012-177.002-18.008l-100,5l5.996-72.988c2.998-41.016,2.002-76.016-0.996-78.008
		c-4.004-1.992-81.006,50-172.002,115.996c-90.996,65.996-172.998,124.004-182.998,129.004c-17.002,10-17.998,3.008-15-103.008
		l2.998-112.988h-120h-120l-9.004,157.988c-7.998,147.012-15.996,183.008-30.996,138.008c-12.002-38.008-127.998-135-185-155.996
		c-97.002-34.004-200-18.008-262.002,41.992c-65,63.008-96.992,220.996-64.004,321.001c23.008,68.003,89.004,140,168.008,183.003
		c55.996,30,70.996,33.999,137.998,33.999c79.004,0,137.002-21.001,187.002-67.998l22.998-20V2.949c0,18.999-2.998,65-7.002,101.997
		l-5.996,69.004l-34.004-7.002c-37.998-7.002-37.998-5-22.002,76.001l11.006,53.999l125.996,52.998
		c69.004,28.003,127.998,50,131.006,47.002c2.998-2.998,12.998-126.001,22.998-272.002c10-145.996,20-267.998,22.002-270
		c1.992-1.997,45,19.004,95,47.002l90,51.001l85-11.001c80.996-11.001,86.992-11.001,115,8.999
		c71.992,51.001,135.996,72.002,223.994,72.002c45,0,95-5,110-10c32.998-13.003,32.998-10,11.006,88.999
		c-16.006,70-17.002,71.001-43.008,65c-13.994-3.999-70.996-15-125.996-26.001c-55-10-112.998-21.001-130-23.999
		c-27.002-5-32.002-1.001-57.002,40c-15.996,26.001-27.998,48.999-27.998,52.998c0,4.004,19.004,17.002,42.998,30
		c22.998,13.003,82.998,45,132.998,73.003l92.002,48.999l41.006-63.999l41.992-63.999l97.002-7.002
		c52.998-3.999,122.002-10,152.002-13.999l54.004-6.001l11.992-60c7.002-32.998,17.002-93.999,24.004-135l12.998-75l20.01,42.998
		c11.992,23.003,25,42.002,28.994,42.002s20-22.002,36.006-50c15-27.002,30-50,32.988-50c3.008,0,13.008,90,22.012,200
		c8.994,111.001,18.994,205,21.992,208.999c2.002,5,60,12.002,127.002,16.001c172.002,10,167.002,10,181.006,27.998
		C8759.443,409.946,8821.436,413.95,8877.441,382.949z M9667.441,382.949c55-28.999,67.998-92.002,32.002-151.001
		c-28.008-46.001-35-50-90.996-50c-91.006,0-140,77.002-102.012,162.002C9534.443,406.948,9595.439,421.948,9667.441,382.949z
		 M6469.433,318.95c127.012-84.004,105-181.001-91.992-384.004l-90-92.998l16.992-62.007c9.004-35,25-93.984,36.006-132.988
		c11.006-38.008,22.002-80,26.006-90.996c5-18.008-6.006-30-59.004-68.008c-35-25-69.004-45.996-74.004-45.996
		s-14.004,16.992-20,37.988c-7.998,28.008-161.992,471.006-197.998,571.006c-3.994,11.001-11.006,8.999-30-8.999l-23.994-22.998
		l-10,23.999c-33.008,76.001-78.008,210-72.012,212.998c15,8.999,211.006,68.999,266.006,82.002
		c36.006,7.998,103.994,12.998,171.006,11.001C6418.437,346.948,6430.439,344.946,6469.433,318.95z M8755.439,91.948
		c-2.998-5-10-10-15.996-10c-5,0-9.004,5-9.004,10c0,6.001,7.002,10,15.996,10C8754.443,101.948,8758.447,97.949,8755.439,91.948z
		 M7810.439,71.948c-14.004-3.999-37.998-7.998-55-7.998h-30l30,7.998c17.002,3.999,40.996,7.998,55,7.998h25L7810.439,71.948z"/>
	<path fill="#010101" d="M6699.443-97.051c-56.006-56.001-52.002-113.999,10.996-145.996c37.998-20,80-19.004,105.996,2.988
		c27.002,21.011,54.004,74.009,54.004,103.008c0,21.997,0,21.997-27.998-3.999c-61.006-59.004-131.006-10-92.002,63.999
		C6768.437-44.053,6741.435-55.054,6699.443-97.051z"/>
	<path fill="#010101" d="M7699.443-166.05c-24.004-21.006-32.002-39.004-36.006-74.009c-2.998-25-0.996-47.988,4.004-50.996
		c10-6.992,122.998,124.004,122.998,142.002C7790.439-127.051,7730.439-138.052,7699.443-166.05z"/>
	<path fill="#010101" d="M7897.441-244.043c-49.004-58.008-87.002-108.008-84.004-110c10-11.016,66.006,26.992,102.002,67.988
		l35.996,43.008l45-50c25-28.008,43.008-42.012,40-32.012c-2.998,11.016-13.994,57.012-22.998,103.008
		c-8.994,46.001-18.994,83.999-22.002,83.999C7988.437-139.053,7945.439-186.05,7897.441-244.043z"/>
	<path fill="#010101" d="M9420.439-228.047c-40.996-33.008-75-64.004-75-70c0-8.008,150.996-130,160.996-130
		c2.012,0,4.004,57.988,4.004,130c0,71.992-2.998,129.995-6.992,128.999C9498.447-169.048,9461.436-196.05,9420.439-228.047z"/>
	<path fill="#010101" d="M7430.439-240.059c-35.996-26.992-65.996-52.988-67.998-56.992c-1.006-4.004,12.002-18.008,30-30.996
		c17.998-13.008,47.998-35,67.002-49.004l33.994-25.996l-5.996,40c-2.998,21.992-2.002,69.004,2.998,105
		c5,35,7.998,64.995,7.002,65.991C7496.435-190.054,7465.439-212.056,7430.439-240.059z"/>
	<path fill="#010101" d="M6253.437,134.946c-37.998-7.998-45-25.996-30.996-82.998c6.992-27.998,17.998-50,22.998-47.998
		c18.994,5,96.006,102.998,92.998,117.998C6335.439,136.948,6295.439,143.95,6253.437,134.946z"/>
</g>
</svg>
