<?xml version="1.0" encoding="utf-8"?>
<!-- Generator: Adobe Illustrator 16.0.0, SVG Export Plug-In . SVG Version: 6.00 Build 0)  -->
<!DOCTYPE svg PUBLIC "-//W3C//DTD SVG 1.1//EN" "http://www.w3.org/Graphics/SVG/1.1/DTD/svg11.dtd">
<svg version="1.1" id="Layer_1" xmlns="http://www.w3.org/2000/svg" xmlns:xlink="http://www.w3.org/1999/xlink" x="0px" y="0px"
	 width="1920px" height="120px" viewBox="0 0 1920 120" enable-background="new 0 0 1920 120" xml:space="preserve">
<polyline display="none" fill="#FFFFFF" stroke="#000000" stroke-miterlimit="10" points="960,60 0,60 1920,60 "/>
<path fill="#FFFFFF" d="M0.001,41.189C0.003,84.719,44.776,120.002,100.005,120l1720-0.076c55.229-0.002,99.998-35.29,99.996-78.819
	l-0.002-44.065L0-2.876L0.001,41.189z"/>
<path display="none" fill="#ED1C24" d="M1023.667,80.854c0,0-28.505,0-63.667,0c-35.162,0-63.666,0-63.666,0
	c0-35.163,28.504-63.667,63.666-63.667C995.162,17.187,1023.667,45.691,1023.667,80.854z"/>
<line display="none" fill="none" stroke="#000000" stroke-width="16" stroke-miterlimit="10" x1="896.334" y1="83.852" x2="1023.667" y2="83.852"/>
<circle display="none" fill="#FFFFFF" stroke="#000000" stroke-width="7" stroke-miterlimit="10" cx="960" cy="60.352" r="19.667"/>
<path fill="#ED1C24" stroke="#000000" stroke-width="5" stroke-miterlimit="10" d="M226.324,59.997
	c0,24.435-19.812,44.247-44.246,44.247c-24.434,0-44.241-19.813-44.241-44.247c0-24.434,19.807-44.242,44.241-44.242
	C206.512,15.755,226.324,35.563,226.324,59.997z"/>
<line fill="none" stroke="#000000" stroke-width="10" stroke-miterlimit="10" x1="1736" y1="58.52" x2="1424" y2="58.52"/>
<line fill="none" stroke="#000000" stroke-width="10" stroke-miterlimit="10" x1="1736" y1="89.667" x2="1424" y2="89.667"/>
<line fill="none" stroke="#000000" stroke-width="10" stroke-miterlimit="10" x1="1736" y1="27.333" x2="1424" y2="27.333"/>
</svg>
