<?xml version="1.0" encoding="utf-8"?>
<!-- Generator: Adobe Illustrator 16.0.0, SVG Export Plug-In . SVG Version: 6.00 Build 0)  -->
<!DOCTYPE svg PUBLIC "-//W3C//DTD SVG 1.1//EN" "http://www.w3.org/Graphics/SVG/1.1/DTD/svg11.dtd">
<svg version="1.1" id="Layer_1" xmlns="http://www.w3.org/2000/svg" xmlns:xlink="http://www.w3.org/1999/xlink" x="0px" y="0px"
	 width="1920px" height="120px" viewBox="0 0 1920 120" enable-background="new 0 0 1920 120" xml:space="preserve">
<polyline display="none" fill="#FFFFFF" stroke="#000000" stroke-miterlimit="10" points="960,60 0,60 1920,60 "/>
<path fill="#FFFFFF" d="M1920,80.228c0-43.529-44.771-78.814-100-78.814H100C44.771,1.413,0,36.699,0,80.228v44.065h1920V80.228z"/>
<path display="none" fill="#ED1C24" d="M1023.667,80.854c0,0-28.505,0-63.667,0c-35.162,0-63.666,0-63.666,0
	c0-35.163,28.504-63.667,63.666-63.667C995.162,17.187,1023.667,45.691,1023.667,80.854z"/>
<line display="none" fill="none" stroke="#000000" stroke-width="16" stroke-miterlimit="10" x1="896.334" y1="83.852" x2="1023.667" y2="83.852"/>
<circle display="none" fill="#FFFFFF" stroke="#000000" stroke-width="7" stroke-miterlimit="10" cx="960" cy="60.352" r="19.667"/>
<circle fill="#ED1C24" stroke="#000000" stroke-width="5" stroke-miterlimit="10" cx="869.004" cy="60.352" r="19.667"/>
<circle fill="#ED1C24" stroke="#000000" stroke-width="5" stroke-miterlimit="10" cx="1050.947" cy="60.352" r="19.667"/>
</svg>
